<?xml version="1.0" encoding="utf-8"?>
<!-- Generator: Adobe Illustrator 19.2.0, SVG Export Plug-In . SVG Version: 6.00 Build 0)  -->
<svg version="1.1" id="Layer_1" xmlns="http://www.w3.org/2000/svg" xmlns:xlink="http://www.w3.org/1999/xlink" x="0px" y="0px"
	 viewBox="0 0 218.2 140.5" style="enable-background:new 0 0 218.2 140.5;" xml:space="preserve">
<style type="text/css">
	.st0{fill:#3B4044;}
	.st1{fill:url(#SVGID_1_);}
	.st2{fill:url(#SVGID_2_);}
	.st3{fill:url(#SVGID_3_);}
	.st4{fill:url(#SVGID_4_);}
	.st5{fill:url(#SVGID_5_);}
	.st6{fill:url(#SVGID_6_);}
	.st7{fill:url(#SVGID_7_);}
	.st8{fill:url(#SVGID_8_);}
	.st9{fill:url(#SVGID_9_);}
	.st10{fill:url(#SVGID_10_);}
	.st11{fill:url(#SVGID_11_);}
</style>
<g id="Logo">
	<g id="Logo_1_">
		<g>
			<path class="st0" d="M29,32.6h8v-16h4v16h10v4H41V83c0,3.4,1.1,7.2,5.2,7.2c1.2,0,3.8-0.1,4.8-0.4v3.9c-2,0.5-4.1,0.6-5.9,0.6
				c-4.2,0-8.1-2.5-8.1-10.6V36.6h-8V32.6z"/>
			<path class="st0" d="M58,8.6h5v11h-5V8.6z M58,32.6h5v61h-5V32.6z"/>
			<path class="st0" d="M75,11.6h11.3c11.2,0,15.7,6.8,15.7,17V33c0,11.4-3.5,15.1-8,16.7c5.2,1.4,9,6.1,9,16.5v5.9
				c0,14.7-3.7,21.5-17.3,21.5H75V11.6z M86.9,47.6c7.6,0,10.1-3.6,10.1-14.7v-4.1c0-8.1-3.2-12.3-11.2-12.3H79v31H86.9z M79,89.6
				h6.7C96,89.6,99,84.1,99,72.1v-5.9c0-9.9-4.6-13.6-12.4-13.6H79V89.6z"/>
			<path class="st0" d="M140,48.1v28c0,13.5-6.2,18.5-14.2,18.5C118,94.6,112,90,112,76.7V48.2c0-10.3,4.9-16.9,14.2-16.9
				C135.6,31.3,140,37.9,140,48.1z M117,48.4v28.5c0,8.5,3,13.5,9,13.5c5.5,0,9-3.6,9-13.5V48.4c0-7.4-2.7-12.8-8.9-12.8
				C119.6,35.6,117,40.4,117,48.4z"/>
			<path class="st0" d="M168,37.3c-8,0.1-13,7.2-13,16.8v39.5h-4V53.3c0-9.6-0.2-15.7-0.4-20.7h4.5c0.1,2,0.3,4,0.3,9.1
				c2.1-6.9,7.5-9.9,12.5-10.1V37.3z"/>
		</g>
		<g>
			<linearGradient id="SVGID_1_" gradientUnits="userSpaceOnUse" x1="33.0068" y1="55.4904" x2="55.0068" y2="55.4904">
				<stop  offset="0" style="stop-color:#FFFFFF;stop-opacity:0"/>
				<stop  offset="1" style="stop-color:#3B4044;stop-opacity:0.3"/>
			</linearGradient>
			<path class="st1" d="M33,32.6h8v-16h4v16h10v4H45V83c0,3.4,1.1,7.2,5.2,7.2c1.2,0,3.8-0.1,4.8-0.4v3.9c-2,0.5-4.1,0.6-5.9,0.6
				c-4.2,0-8.1-2.5-8.1-10.6V36.6h-8V32.6z"/>
			<linearGradient id="SVGID_2_" gradientUnits="userSpaceOnUse" x1="62.0068" y1="51.0812" x2="67.0068" y2="51.0812">
				<stop  offset="0" style="stop-color:#FFFFFF;stop-opacity:0"/>
				<stop  offset="1" style="stop-color:#3B4044;stop-opacity:0.3"/>
			</linearGradient>
			<path class="st2" d="M62,8.6h5v11h-5V8.6z M62,32.6h5v61h-5V32.6z"/>
			<linearGradient id="SVGID_3_" gradientUnits="userSpaceOnUse" x1="79.0068" y1="52.5812" x2="107.0068" y2="52.5812">
				<stop  offset="0" style="stop-color:#FFFFFF;stop-opacity:0"/>
				<stop  offset="1" style="stop-color:#3B4044;stop-opacity:0.3"/>
			</linearGradient>
			<path class="st3" d="M79,11.6h11.6c11.2,0,15.4,6.8,15.4,17V33c0,11.4-3.5,15.1-8,16.7c5.2,1.4,9,6.1,9,16.5v5.9
				c0,14.7-3.4,21.5-17.1,21.5H79V11.6z M91.2,47.6c7.6,0,9.8-3.6,9.8-14.7v-4.1c0-8.1-3-12.3-10.9-12.3H83v31H91.2z M83,89.6h6.9
				c10.3,0,13.1-5.5,13.1-17.5v-5.9c0-9.9-4.3-13.6-12.2-13.6H83V89.6z"/>
			<linearGradient id="SVGID_4_" gradientUnits="userSpaceOnUse" x1="116.0068" y1="62.9669" x2="144.0068" y2="62.9669">
				<stop  offset="0" style="stop-color:#FFFFFF;stop-opacity:0"/>
				<stop  offset="1" style="stop-color:#3B4044;stop-opacity:0.3"/>
			</linearGradient>
			<path class="st4" d="M144,48.1v28c0,13.5-6.2,18.5-14.2,18.5C122,94.6,116,90,116,76.7V48.2c0-10.3,4.9-16.9,14.2-16.9
				C139.6,31.3,144,37.9,144,48.1z M121,48.4v28.5c0,8.5,3,13.5,9,13.5c5.5,0,9-3.6,9-13.5V48.4c0-7.4-2.7-12.8-8.9-12.8
				C123.6,35.6,121,40.4,121,48.4z"/>
			<linearGradient id="SVGID_5_" gradientUnits="userSpaceOnUse" x1="154.8984" y1="62.5575" x2="172.0068" y2="62.5575">
				<stop  offset="0" style="stop-color:#FFFFFF;stop-opacity:0"/>
				<stop  offset="1" style="stop-color:#3B4044;stop-opacity:0.3"/>
			</linearGradient>
			<path class="st5" d="M172,37.3c-8,0.1-13,7.2-13,16.8v39.5h-4V53.3c0-9.6,0-15.7-0.1-20.7h4.5c0.1,2,0.2,4,0.2,9.1
				c2.1-6.9,7.4-9.9,12.4-10.1V37.3z"/>
		</g>
	</g>
	<g id="Shapes">
		
			<linearGradient id="SVGID_6_" gradientUnits="userSpaceOnUse" x1="248.8702" y1="299.144" x2="149.2505" y2="126.5976" gradientTransform="matrix(0.8248 -0.1752 -0.1752 0.8248 -63.5531 -63.5531)">
			<stop  offset="0" style="stop-color:#FFFFFF;stop-opacity:0"/>
			<stop  offset="1" style="stop-color:#2CA6B8;stop-opacity:0.1"/>
		</linearGradient>
		<polygon class="st6" points="126.7,101.8 88,140.5 0,52.5 38.7,13.8 		"/>
		
			<linearGradient id="SVGID_7_" gradientUnits="userSpaceOnUse" x1="290.5509" y1="294.524" x2="192.9374" y2="125.4524" gradientTransform="matrix(0.8248 -0.1752 -0.1752 0.8248 -63.5531 -63.5531)">
			<stop  offset="0" style="stop-color:#FFFFFF;stop-opacity:0"/>
			<stop  offset="1" style="stop-color:#2CA6B8;stop-opacity:0.1"/>
		</linearGradient>
		<polygon class="st7" points="166.4,84 115.8,134.6 31.8,50.6 82.3,0 		"/>
		
			<linearGradient id="SVGID_8_" gradientUnits="userSpaceOnUse" x1="329.2404" y1="297.709" x2="241.9445" y2="146.508" gradientTransform="matrix(0.8248 -0.1752 -0.1752 0.8248 -63.5531 -63.5531)">
			<stop  offset="0" style="stop-color:#FFFFFF;stop-opacity:0"/>
			<stop  offset="1" style="stop-color:#60C2D3;stop-opacity:0.1"/>
		</linearGradient>
		<polygon class="st8" points="190.3,88.8 152.3,126.9 75.9,50.5 113.9,12.4 		"/>
		
			<linearGradient id="SVGID_9_" gradientUnits="userSpaceOnUse" x1="362.6415" y1="296.9001" x2="277.2852" y2="149.0587" gradientTransform="matrix(0.8248 -0.1752 -0.1752 0.8248 -63.5531 -63.5531)">
			<stop  offset="0" style="stop-color:#FFFFFF;stop-opacity:0"/>
			<stop  offset="1" style="stop-color:#2CA6B8;stop-opacity:0.3"/>
		</linearGradient>
		<polygon class="st9" points="218.2,81.7 178.7,121.2 104.4,47 143.9,7.4 		"/>
		
			<linearGradient id="SVGID_10_" gradientUnits="userSpaceOnUse" x1="284.1424" y1="272.5709" x2="188.1889" y2="106.3747" gradientTransform="matrix(0.8248 -0.1752 -0.1752 0.8248 -63.5531 -63.5531)">
			<stop  offset="0" style="stop-color:#FFFFFF;stop-opacity:0"/>
			<stop  offset="1" style="stop-color:#60C2D3;stop-opacity:0.3"/>
		</linearGradient>
		<polygon class="st10" points="147.2,92 138.7,100.5 48.9,10.7 57.4,2.2 		"/>
		
			<linearGradient id="SVGID_11_" gradientUnits="userSpaceOnUse" x1="262.0216" y1="301.0361" x2="162.4735" y2="128.6138" gradientTransform="matrix(0.8248 -0.1752 -0.1752 0.8248 -63.5531 -63.5531)">
			<stop  offset="0" style="stop-color:#FFFFFF;stop-opacity:0"/>
			<stop  offset="1" style="stop-color:#60C2D3;stop-opacity:0.3"/>
		</linearGradient>
		<polygon class="st11" points="135,104.1 101.6,137.6 12.7,48.8 46.2,15.3 		"/>
	</g>
</g>
</svg>
